# xmcd
#
# Track frame offsets: 
#        150
#        18126
#        38104
#        59704
#        74921
#        94103
#        109571
#        125799
#        144608
#        156843
#        175672
#        194854
#        216577
#
# Disc length: 3012 seconds
#
# Revision: 0
# Processed by: cddbd v1.4PL0 Copyright (c) Steve Scherf et al.
# Submitted via: ExactAudioCopy v0.90b4
#
DISCID=ce0bc20d
DTITLE=The Beer Dawgs - Blonde On The Bayou
DYEAR=1999
DGENRE=Blues
TTITLE0=Just Don't Eat What You Can't Spell
TTITLE1=Wilma
TTITLE2=Soul Kiss
TTITLE3=Blonde On The Bayou
TTITLE4=The Puzzle Song
TTITLE5=Babies Havin' Babies
TTITLE6=The Farmer
TTITLE7=You Better Rest
TTITLE8=Too Many Irons In The Fire
TTITLE9=More Than I Want To Know
TTITLE10=Pleasure Pup
TTITLE11=Jose Grand Marnier And The Ju Ju Queen
TTITLE12=Mon Coeur Qui Batte (My Beating Heart)
EXTD=
EXTT0=
EXTT1=
EXTT2=
EXTT3=
EXTT4=
EXTT5=
EXTT6=
EXTT7=
EXTT8=
EXTT9=
EXTT10=
EXTT11=
EXTT12=
PLAYORDER=
